#!OML:ASF H:\Terrain\Patient Classification 1\Walking\liu\liu.ASF
:FULLY-SPECIFIED
:DEGREES
45
root 8.26896315875 16.5199896501 -14.3485021027 7.72875667248 9.88864856219 -0.129097957335
lowerback -4.99544198258 -2.39464527902 -1.18705752385
upperback -1.71543482427 -3.18074766305 3.36667324341
thorax 1.28887361916 -1.58762292273 3.93922320553
lowerneck -19.9721251987 -7.09772247671 -14.4411718556
upperneck 15.655182136 -8.47425965542 14.1044617163
head 9.49212283272 -3.40721595388 6.0921525842
rclavicle -1.36394077587e-14 2.24524638817e-14
rhumerus -45.7505436897 7.35343922693 -81.514442568
rradius 32.4083433936
rwrist -18.9744815901
rhand -31.1593819896 -26.0080485813
rfingers 7.12502
rthumb -4.43685086909 -55.9301286541
lclavicle -1.36394077587e-14 2.24524638817e-14
lhumerus -42.4043596426 -8.40118402905 94.2984617113
lradius 22.247470619
lwrist -2.96239457243
lhand -4.9752573 -19.1553059964
lfingers 7.12502
lthumb 20.8172196922 9.74834190479
rfemur -31.2789703609 1.68219550163 22.4077065209
rtibia 33.1614778935
rfoot -11.9559123874 -0.625554550979
rtoes -13.2156447543
lfemur -1.32094618781 7.79417804353 -13.9493372254
ltibia 49.5621795697
lfoot 4.12338902794 11.6935593095
ltoes -17.4460743888
46
root 8.22480900946 16.6431671544 -13.90227455 7.92392452414 9.51793283282 -0.978306882294
lowerback -4.93618481963 -1.83056341664 -0.332603447055
upperback -1.76025082432 -2.46764103288 3.49083471195
thorax 1.1236163538 -1.22778438702 3.63584877216
lowerneck -18.7237291005 -7.10669666385 -14.6536937753
upperneck 14.5629822617 -8.64040158566 14.8441436561
head 8.97441852452 -3.47968905323 6.3560922216
rclavicle 3.65227881975e-14 -3.76725056809e-14
rhumerus -44.9958217455 9.02170876576 -81.6697306638
rradius 33.8499721202
rwrist -18.5586517055
rhand -28.2762716442 -27.4782383694
rfingers 7.12502
rthumb -1.65271431642 -57.4516170334
lclavicle 3.65227881975e-14 -3.76725056809e-14
lhumerus -44.9634857213 -12.1679723082 96.7833397348
lradius 25.8867462671
lwrist 3.17801436469
lhand -0.627412532235 -18.2958915428
lfingers 7.12502
lthumb 24.9892918884 10.0897936075
rfemur -28.323231261 1.20566912591 23.9486805666
rtibia 30.2982379363
rfoot -12.8167327595 0.623931967187
rtoes -14.9612834967
lfemur -7.02215028028 8.13489599716 -14.1517118025
ltibia 55.5895262633
lfoot 5.24150542828 13.6022011506
ltoes 2.18556628438
47
root 8.18995475823 16.7265550099 -13.4602526918 7.79790057603 8.69791633243 -1.25681682943
lowerback -4.629563163 -1.17404740262 -0.15212521062
upperback -1.58595669176 -1.60117645828 3.56652498793
thorax 1.07115481479 -0.794884071248 3.6703508956
lowerneck -18.796603728 -7.3131862053 -14.9978939705
upperneck 14.5369743943 -8.86075933236 15.0413423421
head 9.04270644449 -3.58045761084 6.45012696984
rclavicle -2.68567994317e-14 1.18383395974e-15
rhumerus -44.3479458082 11.1669188333 -81.6232944136
rradius 36.407133395
rwrist -19.7125489271
rhand -29.5790085987 -24.3154732898
rfingers 7.12502
rthumb -2.91090611844 -54.2753656525
lclavicle -2.68567994317e-14 1.18383395974e-15
lhumerus -46.2077972195 -13.5054866849 97.7987385837
lradius 28.2905299163
lwrist 6.56306267076
lhand -0.770564922265 -19.063785073
lfingers 7.12502
lthumb 24.8515266735 9.33405984927
rfemur -25.3657016118 1.61385450402 24.6811508244
rtibia 28.2524407596
rfoot -13.6909466415 1.23816140483
rtoes -15.2353157268
lfemur -11.9887335536 8.45042280708 -15.0891075894
ltibia 59.3079899986
lfoot -1.53037218306 11.9207714269
ltoes -11.5579354824
48
root 8.15891880431 16.7587569728 -13.0390701805 7.95594796202 7.91948998222 -1.7640378533
lowerback -4.47440467621 -0.383518677748 0.432685299755
upperback -1.85739696285 -0.558296700994 3.57829991454
thorax 0.631101958656 -0.267838531738 3.41142190713
lowerneck -16.7454654177 -7.49764120881 -15.9589267231
upperneck 13.5904315252 -9.24241569784 15.9651591268
head 8.52624111756 -3.82206557504 6.89145583572
rclavicle 3.0701488602e-14 -3.47127565088e-14
rhumerus -43.5898961967 11.6202455547 -80.981684263
rradius 38.0357639078
rwrist -20.0003413473
rhand -29.5713330142 -24.147489279
rfingers 7.12502
rthumb -2.90343455854 -54.1073509005
lclavicle 3.0701488602e-14 -3.47127565088e-14
lhumerus -47.8578864817 -14.5450166107 98.5924873746
lradius 30.6670233615
lwrist 11.3442015964
lhand -10.9338135688 -25.6038338767
lfingers 7.12502
lthumb 15.0840815164 3.82375271219
rfemur -23.4167794469 1.98911814689 25.5847320268
rtibia 27.2595411927
rfoot -14.3061701049 1.89575498565
rtoes -15.200256329
lfemur -17.20497079 8.60448010132 -15.9057161194
ltibia 61.6704026745
lfoot -4.97148641916 10.0950129082
ltoes -10.8211565319
